<?xml version="1.0" encoding="UTF-8"?>
<!DOCTYPE svg PUBLIC "-//W3C//DTD SVG 1.1//EN" "http://www.w3.org/Graphics/SVG/1.1/DTD/svg11.dtd">
<!-- Creator: CorelDRAW -->
<svg xmlns="http://www.w3.org/2000/svg" xml:space="preserve" width="115.091mm" height="114.979mm" version="1.1" style="shape-rendering:geometricPrecision; text-rendering:geometricPrecision; image-rendering:optimizeQuality; fill-rule:evenodd; clip-rule:evenodd"
viewBox="0 0 12356.68 12425.3"
 xmlns:xlink="http://www.w3.org/1999/xlink"
 xmlns:xodm="http://www.corel.com/coreldraw/odm/2003">
 <defs>
  <style type="text/css">
   <![CDATA[
    .str0 {stroke:black;stroke-width:228.74;stroke-miterlimit:22.9256}
    .fil0 {fill:#FFF0}
    .fil1 {fill:#FEFEFE;fill-rule:nonzero}
    .fil2 {fill:#60EBD4;fill-rule:nonzero}
   ]]>
  </style>
 </defs>
 <g id="Capa_x0020_1">
  <metadata id="CorelCorpID_0Corel-Layer"/>
  <rect class="fil0" y="-0.01" width="12356.68" height="12425.3"/>
  <path class="fil1 str0" d="M2391.13 6212.65c0,981.39 323.84,1768.83 879.58,2308.37 350.81,340.58 799.14,588.33 1321.93,729.66l0 -3038.03 0 -2001.35 0 -1036.68 0 -38.55 -2140.4 0c12.06,-12.02 24.2,-23.96 36.41,-35.81 787.29,-764.36 1895.79,-1187.46 3189.69,-1187.46l0 496.81 0 627.96 0 3175.08 0 3175.08 0 627.96 0 496.81c-1293.9,0 -2402.4,-423.09 -3189.69,-1187.44 -772.27,-749.78 -1222.28,-1813 -1222.28,-3112.4 0,-750.97 150.31,-1423.06 426.27,-2001.35l1307.21 0c-388.62,515.19 -608.72,1192.36 -608.72,2001.35z"/>
  <path class="fil2 str0" transform="translate(1000, 0)" d="M9283.26 6202.36c0,-981.37 -323.84,-1768.81 -879.58,-2308.36 -350.81,-340.59 -799.14,-588.33 -1321.93,-729.67l0 3038.03 0 2001.35 0 1036.68 0 38.55 2140.4 0c-12.06,12.02 -24.2,23.96 -36.41,35.82 -787.29,764.36 -1895.79,1187.44 -3189.69,1187.44l0 -496.81 0 -627.96 0 -3175.08 0 -3175.08 0 -627.96 0 -496.81c1293.9,0 2402.4,423.1 3189.69,1187.46 772.27,749.77 1222.28,1812.99 1222.28,3112.39 0,750.98 -150.31,1423.07 -426.27,2001.35l-1307.21 0c388.62,-515.19 608.72,-1192.36 608.72,-2001.35z"/>
 </g>
</svg>