<?xml version="1.0" encoding="UTF-8"?>
<!DOCTYPE svg PUBLIC "-//W3C//DTD SVG 1.1//EN" "http://www.w3.org/Graphics/SVG/1.1/DTD/svg11.dtd">
<!-- Creator: CorelDRAW -->
<svg xmlns="http://www.w3.org/2000/svg" xml:space="preserve" width="105.091mm" height="102.052mm" version="1.1" style="shape-rendering:geometricPrecision; text-rendering:geometricPrecision; image-rendering:optimizeQuality; fill-rule:evenodd; clip-rule:evenodd"
viewBox="0 0 11690.86 11352.81"
 xmlns:xlink="http://www.w3.org/1999/xlink"
 xmlns:xodm="http://www.corel.com/coreldraw/odm/2003">
 <defs>
  <style type="text/css">
   <![CDATA[
    .fil0 {fill:#FFF0}
    .fil1 {fill:#FEFEFE;fill-rule:nonzero}
    .fil2 {fill:#60EBD4;fill-rule:nonzero}
   ]]>
  </style>
 </defs>
 <g id="Capa_x0020_1">
  <metadata id="CorelCorpID_0Corel-Layer"/>
  <rect class="fil0" y="-0" width="11690.86" height="11352.81"/>
  <path class="fil1" d="M2933.15 5684.71c0,792.82 261.62,1428.96 710.58,1864.84 283.41,275.14 645.59,475.3 1067.93,589.47l0 -2454.31 0 -1616.82 0 -837.49 0 -31.15 -1729.14 0c9.75,-9.7 19.55,-19.35 29.41,-28.92 636.02,-617.5 1531.54,-959.3 2576.82,-959.3l0 401.35 0 507.3 0 2565.03 0 2565.02 0 507.3 0 401.35c-1045.28,0 -1940.8,-341.79 -2576.82,-959.28 -623.89,-605.72 -987.44,-1464.66 -987.44,-2514.39 0,-606.68 121.42,-1149.63 344.37,-1616.82l1056.04 0c-313.95,416.2 -491.76,963.26 -491.76,1616.82z"/>
  <path class="fil2" d="M8501.03 5676.4c0,-792.81 -261.62,-1428.96 -710.58,-1864.84 -283.41,-275.15 -645.59,-475.28 -1067.93,-589.47l0 2454.31 0 1616.81 0 837.5 0 31.14 1729.14 0c-9.75,9.71 -19.55,19.36 -29.41,28.93 -636.02,617.5 -1531.54,959.29 -2576.82,959.29l0 -401.35 0 -507.3 0 -2565.02 0 -2565.03 0 -507.3 0 -401.35c1045.28,0 1940.8,341.8 2576.82,959.3 623.89,605.71 987.44,1464.64 987.44,2514.38 0,606.69 -121.42,1149.64 -344.37,1616.81l-1056.04 0c313.95,-416.2 491.76,-963.26 491.76,-1616.81z"/>
 </g>
</svg>
